<?xml version="1.0" encoding="iso-8859-1"?>
<!-- Generator: Adobe Illustrator 19.0.0, SVG Export Plug-In . SVG Version: 6.00 Build 0)  -->
<svg version="1.1" id="Capa_1" xmlns="http://www.w3.org/2000/svg" xmlns:xlink="http://www.w3.org/1999/xlink" x="0px" y="0px"
	 viewBox="0 0 512 512" style="enable-background:new 0 0 512 512;" xml:space="preserve">
<path style="fill:#FD6244;" d="M496.138,213.898c7.81,7.81,7.81,20.469,0,28.279c-7.788,7.807-20.479,7.82-28.279,0L269.875,44.194
	c-7.81-7.81-7.81-20.469,0-28.279c7.83-7.81,20.443-7.816,28.279,0L496.138,213.898z"/>
<path style="fill:#F0E6DE;" d="M467.859,242.177L354.722,355.314L156.739,157.33L269.875,44.194L467.859,242.177z"/>
<path style="fill:#FD6244;" d="M354.722,355.314c7.81,7.81,7.81,20.469,0,28.279c-7.788,7.807-20.479,7.82-28.279,0
	C285.161,342.31,169.671,226.821,128.46,185.609c-7.81-7.81-7.81-20.469,0-28.279c7.83-7.81,20.443-7.816,28.279,0L354.722,355.314z
	"/>
<path style="fill:#BF6015;" d="M199.167,256.317l56.568,56.568c-46.548,27.929-90.847,70.728-120.646,116.096l-33.129,50.438
	c-20.223,30.775-66.171,30.24-85.457-2.92c-12.644-21.718-6.619-51.333,16.209-66.328l50.448-33.129
	C128.986,346.938,171.524,302.394,199.167,256.317z"/>
<path d="M418.359,249.247c3.91-3.9,3.91-10.23,0-14.14c-3.9-3.9-10.24-3.9-14.14,0c-3.91,3.91-3.91,10.24,0,14.14
	C408.121,253.157,414.459,253.157,418.359,249.247z"/>
<path d="M390.081,220.968c3.9-3.91,3.9-10.24,0-14.14c-3.91-3.91-10.24-3.91-14.15,0c-3.9,3.9-3.9,10.23,0,14.14
	C379.841,224.868,386.17,224.868,390.081,220.968z"/>
<path d="M390.081,277.536c3.9-3.91,3.9-10.24,0-14.14c-3.91-3.91-10.24-3.91-14.15,0c-3.9,3.9-3.9,10.23,0,14.14
	C379.841,281.436,386.17,281.436,390.081,277.536z"/>
<path d="M361.792,192.679c3.91-3.9,3.91-10.23,0-14.14c-3.9-3.9-10.24-3.9-14.14,0c-3.91,3.91-3.91,10.24,0,14.14
	C351.552,196.589,357.892,196.589,361.792,192.679z"/>
<path d="M361.792,249.247c3.91-3.9,3.91-10.23,0-14.14c-3.9-3.9-10.24-3.9-14.14,0c-3.91,3.91-3.91,10.24,0,14.14
	C351.552,253.157,357.892,253.157,361.792,249.247z"/>
<path d="M361.792,305.815c3.91-3.9,3.91-10.24,0-14.14c-3.9-3.91-10.24-3.91-14.14,0c-3.91,3.9-3.91,10.24,0,14.14
	C351.552,309.725,357.892,309.725,361.792,305.815z"/>
<path d="M319.374,150.26c-3.91,3.9-3.91,10.24,0,14.14c3.9,3.91,10.23,3.91,14.14,0c3.9-3.9,3.9-10.24,0-14.14
	C329.603,146.351,323.273,146.351,319.374,150.26z"/>
<path d="M319.374,206.829c-3.91,3.9-3.91,10.23,0,14.14c3.9,3.9,10.23,3.9,14.14,0c3.9-3.91,3.9-10.24,0-14.14
	C329.603,202.919,323.273,202.919,319.374,206.829z"/>
<path d="M319.374,263.397c-3.91,3.9-3.91,10.23,0,14.14c3.9,3.9,10.23,3.9,14.14,0c3.9-3.91,3.9-10.24,0-14.14
	C329.603,259.487,323.273,259.487,319.374,263.397z"/>
<path d="M291.084,121.971c-3.9,3.91-3.9,10.24,0,14.15c3.91,3.9,10.24,3.9,14.14,0c3.91-3.91,3.91-10.24,0-14.15
	C301.324,118.072,294.994,118.072,291.084,121.971z"/>
<path d="M291.084,178.54c-3.9,3.91-3.9,10.24,0,14.14c3.91,3.91,10.24,3.91,14.14,0c3.91-3.9,3.91-10.23,0-14.14
	C301.324,174.64,294.994,174.64,291.084,178.54z"/>
<path d="M291.084,235.108c-3.9,3.91-3.9,10.24,0,14.14c3.91,3.91,10.24,3.91,14.14,0c3.91-3.9,3.91-10.23,0-14.14
	C301.324,231.208,294.994,231.208,291.084,235.108z"/>
<path d="M262.805,93.692c-3.91,3.9-3.91,10.24,0,14.14c3.9,3.91,10.23,3.91,14.14,0c3.9-3.9,3.9-10.24,0-14.14
	C273.035,89.783,266.704,89.783,262.805,93.692z"/>
<path d="M262.805,150.26c-3.91,3.9-3.91,10.24,0,14.14c3.9,3.91,10.23,3.91,14.14,0c3.9-3.9,3.9-10.24,0-14.14
	C273.035,146.351,266.704,146.351,262.805,150.26z"/>
<path d="M262.805,206.829c-3.91,3.9-3.91,10.23,0,14.14c3.9,3.9,10.23,3.9,14.14,0c3.9-3.91,3.9-10.24,0-14.14
	C273.035,202.919,266.704,202.919,262.805,206.829z"/>
<path d="M234.516,121.971c-3.9,3.91-3.9,10.24,0,14.15c3.91,3.9,10.24,3.9,14.14,0c3.91-3.91,3.91-10.24,0-14.15
	C244.756,118.072,238.425,118.072,234.516,121.971z"/>
<path d="M234.516,178.54c-3.9,3.91-3.9,10.24,0,14.14c3.91,3.91,10.24,3.91,14.14,0c3.91-3.9,3.91-10.23,0-14.14
	C244.756,174.64,238.425,174.64,234.516,178.54z"/>
<path d="M206.236,150.26c-3.91,3.9-3.91,10.24,0,14.14c3.9,3.91,10.24,3.91,14.14,0c3.91-3.9,3.91-10.24,0-14.14
	C216.476,146.351,210.137,146.351,206.236,150.26z"/>
<path d="M65.721,460.55c3.9-3.9,3.9-10.23,0-14.14c-3.91-3.9-10.24-3.9-14.14,0c-3.91,3.91-3.91,10.24,0,14.14
	C55.481,464.46,61.812,464.46,65.721,460.55z"/>
<path d="M7.859,481.527c22.99,39.53,78.127,40.398,102.46,3.383l33.129-50.437c27.884-42.453,67.971-81.781,110.813-108.919
	l65.102,65.101c11.72,11.75,30.743,11.729,42.43,0.01c9.407-9.405,11.098-23.221,5.868-34.147L469.059,255.12
	c10.998,5.265,24.825,3.479,34.148-5.871c11.724-11.722,11.726-30.695,0.001-42.422L305.216,8.836
	c-11.585-11.555-30.509-11.865-42.412,0.009c-9.403,9.402-11.1,23.217-5.868,34.146L155.533,144.395
	c-10.95-5.244-24.726-3.529-34.144,5.866c-11.726,11.724-11.727,30.695-0.001,42.421l65.109,65.109
	c-28.098,44.295-68.262,84.246-108.825,110.895l-50.449,33.13C0.074,419.65-7.53,455.095,7.859,481.527z M276.937,22.996
	c3.949-3.941,10.245-3.902,14.146-0.009l197.982,197.982c3.893,3.893,3.926,10.212-0.01,14.147c-3.881,3.892-10.221,3.906-14.117,0
	c-0.002-0.002-0.003-0.003-0.005-0.005s-0.003-0.003-0.005-0.005L276.945,37.122c-0.002-0.002-0.004-0.003-0.005-0.005
	C273.033,33.203,273.049,26.884,276.937,22.996z M269.875,58.337l183.842,183.842l-98.995,98.994L170.881,157.331L269.875,58.337z
	 M135.53,178.539c-3.926-3.926-3.887-10.251-0.008-14.128c3.93-3.922,10.223-3.924,14.155,0L347.65,362.384
	c3.893,3.893,3.926,10.212-0.01,14.147c-3.85,3.86-10.188,3.939-14.127-0.01C292.231,335.239,176.742,219.751,135.53,178.539z
	 M38.202,418.531l50.45-33.13c42.306-27.794,83.153-68.45,112.321-113.135l38.81,38.81c-43.754,28.517-84.481,68.92-113.052,112.417
	l-33.128,50.436c-16.247,24.729-52.988,24.138-68.458-2.459C15.137,454.276,19.926,430.536,38.202,418.531z"/>
<path d="M90.721,435.553l19.999-19.999c3.905-3.905,3.905-10.237,0-14.143c-3.906-3.904-10.236-3.904-14.143,0L76.579,421.41
	c-3.905,3.905-3.905,10.237,0,14.143C80.486,439.459,86.815,439.458,90.721,435.553z"/>
<g>
</g>
<g>
</g>
<g>
</g>
<g>
</g>
<g>
</g>
<g>
</g>
<g>
</g>
<g>
</g>
<g>
</g>
<g>
</g>
<g>
</g>
<g>
</g>
<g>
</g>
<g>
</g>
<g>
</g>
</svg>
