<svg id="Layer_2" height="512" viewBox="0 0 128 128" width="512" xmlns="http://www.w3.org/2000/svg" data-name="Layer 2"><path d="m64 24.07a1.749 1.749 0 0 0 1.75-1.75v-15.82a1.75 1.75 0 0 0 -3.5 0v15.82a1.749 1.749 0 0 0 1.75 1.75z" fill="#ccc"/><path d="m77.589 120.373-11.839-14.073v-59.58a1.75 1.75 0 0 0 -3.5 0v59.58l-11.839 14.073a1.75 1.75 0 0 0 2.678 2.254l9.161-10.89v9.763a1.75 1.75 0 0 0 3.5 0v-9.763l9.161 10.89a1.75 1.75 0 0 0 2.678-2.254z" fill="#ccc"/><ellipse cx="64" cy="39.882" fill="#ddb93f" rx="39.808" ry="6.839"/><ellipse cx="64" cy="31.81" fill="#fcd248" rx="39.808" ry="6.839"/><path d="m75.308 28.707c0 .9-5.061 1.634-11.308 1.634s-11.308-.734-11.308-1.634a.376.376 0 0 1 .178-.274 14.6 14.6 0 0 1 11.13-6.111 14.6 14.6 0 0 1 11.13 6.111.376.376 0 0 1 .178.274z" fill="#ccc"/><path d="m60.437 57.573h7.125v9.509h-7.125z" fill="#fcd248"/></svg>