<svg height="469pt" viewBox="0 -14 469.184 469" width="469pt" xmlns="http://www.w3.org/2000/svg"><path d="m277.632812 41.949219h-64v357.816406h64c98.78125 0 178.886719-80.105469 178.886719-178.914063 0-98.816406-80.113281-178.902343-178.886719-178.902343zm0 0" fill="#db785a"/><path d="m277.632812 403.757812h-64c-2.207031 0-4-1.792968-4-4v-357.808593c0-2.210938 1.792969-4 4-4h64c100.839844 0 182.886719 82.046875 182.886719 182.902343 0 100.847657-82.046875 182.90625-182.886719 182.90625zm-60-8h60c96.4375 0 174.886719-78.464843 174.886719-174.914062 0-96.441406-78.457031-174.902344-174.886719-174.902344h-60zm0 0" fill="#63312d"/><path d="m465.175781 220.851562c0 22.90625-18.558593 41.472657-41.457031 41.472657-22.902344 0-41.488281-18.566407-41.488281-41.472657 0-22.902343 18.578125-41.464843 41.488281-41.464843 22.898438-.007813 41.457031 18.5625 41.457031 41.464843zm0 0" fill="#84dbff"/><path d="m234.601562 437.605469c-22.90625 0-41.480468-18.570313-41.480468-41.464844 0-22.90625 18.566406-41.472656 41.480468-41.472656 22.894532 0 41.460938 18.566406 41.460938 41.472656 0 22.894531-18.566406 41.464844-41.460938 41.464844zm0 0" fill="#84dbff"/><path d="m209.121094 396.148438c0-20.160157 14.398437-36.9375 33.480468-40.671876-2.59375-.503906-5.265624-.800781-8-.800781-22.90625 0-41.480468 18.566407-41.480468 41.472657 0 22.894531 18.566406 41.464843 41.480468 41.464843 2.734376 0 5.40625-.296875 8-.808593-19.082031-3.738282-33.480468-20.503907-33.480468-40.65625zm0 0" fill="#caf4ff"/><path d="m234.601562 87.035156c-22.90625 0-41.480468-18.566406-41.480468-41.464844 0-22.902343 18.566406-41.46875 41.480468-41.46875 22.894532 0 41.460938 18.558594 41.460938 41.46875 0 22.898438-18.566406 41.464844-41.460938 41.464844zm0 0" fill="#84dbff"/><path d="m209.121094 45.5625c0-20.167969 14.398437-36.925781 33.480468-40.664062-2.59375-.503907-5.265624-.804688-8-.804688-22.90625 0-41.480468 18.558594-41.480468 41.46875 0 22.898438 18.566406 41.464844 41.480468 41.464844 2.734376 0 5.40625-.296875 8-.800782-19.082031-3.726562-33.480468-20.503906-33.480468-40.664062zm0 0" fill="#caf4ff"/><path d="m397.648438 383.898438c-16.191407 16.195312-42.457032 16.195312-58.640626 0-16.199218-16.191407-16.199218-42.453126-.007812-58.644532 16.191406-16.203125 42.457031-16.195312 58.648438 0 16.183593 16.199219 16.191406 42.453125 0 58.644532zm0 0" fill="#84dbff"/><path d="m355.007812 383.90625c-16.199218-16.191406-16.199218-42.453125-.007812-58.644531 6.054688-6.058594 13.503906-9.832031 21.320312-11.371094-13.097656-2.558594-27.167968 1.21875-37.320312 11.371094-16.199219 16.191406-16.199219 42.445312.007812 58.644531 10.144532 10.144531 24.214844 13.921875 37.3125 11.363281-7.816406-1.53125-15.265624-5.3125-21.3125-11.363281zm0 0" fill="#caf4ff"/><path d="m339.007812 116.453125c-16.199218-16.199219-16.199218-42.457031-.007812-58.648437 16.191406-16.199219 42.457031-16.191407 58.648438 0 16.191406 16.191406 16.191406 42.449218 0 58.640624-16.199219 16.191407-42.457032 16.199219-58.640626.007813zm0 0" fill="#84dbff"/><path d="m355.007812 116.453125c-16.199218-16.199219-16.199218-42.457031-.007812-58.648437 6.054688-6.058594 13.503906-9.832032 21.320312-11.367188-13.097656-2.5625-27.167968 1.214844-37.320312 11.367188-16.199219 16.191406-16.199219 42.449218.007812 58.648437 10.144532 10.144531 24.214844 13.917969 37.3125 11.359375-7.816406-1.527344-15.265624-5.3125-21.3125-11.359375zm0 0" fill="#caf4ff"/><path d="m4.007812 220.851562c0 22.90625 18.558594 41.472657 41.457032 41.472657 22.902344 0 41.488281-18.566407 41.488281-41.472657 0-22.902343-18.578125-41.464843-41.488281-41.464843-22.898438-.007813-41.457032 18.5625-41.457032 41.464843zm0 0" fill="#84dbff"/><path d="m71.535156 383.898438c16.191406 16.195312 42.457032 16.195312 58.640625 0 16.199219-16.191407 16.199219-42.453126.007813-58.644532-16.191406-16.203125-42.457032-16.195312-58.648438 0-16.183594 16.199219-16.191406 42.453125 0 58.644532zm0 0" fill="#84dbff"/><path d="m87.535156 383.898438c-16.191406-16.191407-16.183594-42.445313 0-58.636719 6.050782-6.058594 13.511719-9.832031 21.328125-11.371094-13.09375-2.558594-27.183593 1.226563-37.328125 11.371094-16.183594 16.191406-16.191406 42.445312 0 58.636719 10.144532 10.144531 24.234375 13.929687 37.328125 11.363281-7.808593-1.523438-15.269531-5.304688-21.328125-11.363281zm0 0" fill="#caf4ff"/><path d="m20.007812 220.851562c0-20.160156 14.398438-36.925781 33.464844-40.664062-2.59375-.503906-5.257812-.808594-8.007812-.808594-22.890625 0-41.457032 18.5625-41.457032 41.464844s18.558594 41.472656 41.457032 41.472656c2.75 0 5.414062-.304687 8.007812-.808594-19.074218-3.726562-33.464844-20.496093-33.464844-40.65625zm0 0" fill="#caf4ff"/><path d="m130.175781 116.453125c16.199219-16.199219 16.199219-42.457031.007813-58.648437-16.191406-16.199219-42.457032-16.191407-58.648438 0-16.191406 16.191406-16.191406 42.449218 0 58.640624 16.199219 16.191407 42.457032 16.199219 58.640625.007813zm0 0" fill="#84dbff"/><path d="m87.535156 116.445312c-16.191406-16.191406-16.191406-42.449218 0-58.640624 6.050782-6.058594 13.511719-9.832032 21.328125-11.367188-13.09375-2.5625-27.183593 1.222656-37.328125 11.367188-16.191406 16.191406-16.191406 42.449218 0 58.640624 10.144532 10.144532 24.234375 13.925782 37.328125 11.367188-7.808593-1.535156-15.269531-5.3125-21.328125-11.367188zm0 0" fill="#caf4ff"/><g fill="#63312d"><path d="m423.726562 266.324219c-25.078124 0-45.488281-20.398438-45.488281-45.472657 0-25.070312 20.410157-45.464843 45.488281-45.464843 25.066407 0 45.457032 20.394531 45.457032 45.464843-.007813 25.074219-20.398438 45.472657-45.457032 45.472657zm0-82.945313c-20.671874 0-37.488281 16.808594-37.488281 37.464844 0 20.664062 16.816407 37.472656 37.488281 37.472656 20.648438 0 37.457032-16.808594 37.457032-37.472656-.007813-20.65625-16.808594-37.464844-37.457032-37.464844zm0 0"/><path d="m234.601562 441.605469c-25.082031 0-45.480468-20.394531-45.480468-45.464844 0-25.074219 20.398437-45.480469 45.480468-45.480469 25.070313 0 45.460938 20.398438 45.460938 45.480469 0 25.070313-20.390625 45.464844-45.460938 45.464844zm0-82.9375c-20.664062 0-37.480468 16.816406-37.480468 37.480469 0 20.65625 16.816406 37.464843 37.480468 37.464843 20.65625 0 37.460938-16.808593 37.460938-37.464843 0-20.664063-16.804688-37.480469-37.460938-37.480469zm0 0"/><path d="m234.601562 91.035156c-25.082031 0-45.480468-20.398437-45.480468-45.472656 0-25.070312 20.398437-45.46875 45.480468-45.46875 25.070313 0 45.460938 20.398438 45.460938 45.46875 0 25.074219-20.390625 45.472656-45.460938 45.472656zm0-82.933594c-20.664062 0-37.480468 16.804688-37.480468 37.46875 0 20.664063 16.816406 37.472657 37.480468 37.472657 20.65625 0 37.460938-16.808594 37.460938-37.472657 0-20.664062-16.804688-37.46875-37.460938-37.46875zm0 0"/><path d="m368.328125 400.050781c-12.152344 0-23.558594-4.726562-32.152344-13.320312-8.589843-8.582031-13.320312-20-13.328125-32.152344 0-12.140625 4.738282-23.558594 13.320313-32.148437 8.585937-8.59375 20-13.320313 32.152343-13.320313h.007813c12.144531 0 23.558594 4.726563 32.152344 13.320313 17.726562 17.726562 17.726562 46.574218 0 64.292968-8.59375 8.601563-20.015625 13.320313-32.152344 13.328125zm-.007813-82.933593c-10.007812 0-19.417968 3.894531-26.496093 10.976562-7.082031 7.078125-10.976563 16.484375-10.976563 26.496094 0 10.007812 3.90625 19.414062 10.984375 26.496094 7.070313 7.070312 16.488281 10.972656 26.496094 10.972656s19.414063-3.894532 26.496094-10.972656c14.609375-14.609376 14.609375-38.378907 0-52.984376-7.082031-7.089843-16.496094-10.984374-26.503907-10.984374zm0 0"/><path d="m368.320312 132.597656c-12.152343 0-23.550781-4.730468-32.144531-13.320312-8.589843-8.59375-13.320312-20.007813-13.328125-32.160156 0-12.144532 4.738282-23.5625 13.320313-32.152344 8.585937-8.59375 20-13.320313 32.152343-13.320313h.007813c12.144531 0 23.558594 4.726563 32.152344 13.320313 8.582031 8.582031 13.320312 20 13.320312 32.152344 0 12.152343-4.738281 23.558593-13.320312 32.152343-8.59375 8.589844-20.015625 13.320313-32.160157 13.328125zm0-82.945312c-10.007812 0-19.417968 3.894531-26.496093 10.976562-7.082031 7.078125-10.976563 16.488282-10.976563 26.496094s3.90625 19.421875 10.984375 26.503906c7.070313 7.070313 16.480469 10.96875 26.488281 10.976563h.007813c10.007813 0 19.414063-3.90625 26.496094-10.984375 7.078125-7.074219 10.976562-16.488282 10.976562-26.496094s-3.898437-19.417969-10.976562-26.496094c-7.082031-7.082031-16.496094-10.976562-26.503907-10.976562zm0 0"/><path d="m45.457031 266.324219c-25.066406 0-45.457031-20.398438-45.457031-45.472657 0-25.070312 20.390625-45.464843 45.457031-45.464843 25.078125 0 45.488281 20.394531 45.488281 45.464843 0 25.074219-20.410156 45.472657-45.488281 45.472657zm0-82.945313c-20.648437 0-37.457031 16.808594-37.457031 37.464844 0 20.664062 16.808594 37.472656 37.457031 37.472656 20.671875 0 37.488281-16.808594 37.488281-37.472656 0-20.65625-16.816406-37.464844-37.488281-37.464844zm0 0"/><path d="m100.863281 400.050781c-12.152343 0-23.566406-4.726562-32.160156-13.320312-17.726563-17.71875-17.726563-46.566407 0-64.292969 8.585937-8.59375 20.007813-13.320312 32.152344-13.320312 12.152343 0 23.570312 4.726562 32.160156 13.320312 8.585937 8.582031 13.320313 20 13.320313 32.152344-.007813 12.148437-4.734376 23.566406-13.328126 32.148437-8.59375 8.585938-20 13.3125-32.144531 13.3125zm0-82.933593c-10.007812 0-19.421875 3.894531-26.503906 10.976562-14.605469 14.605469-14.605469 38.375 0 52.980469 7.082031 7.082031 16.488281 10.976562 26.496094 10.976562h.007812c10.007813 0 19.417969-3.894531 26.488281-10.976562 7.082032-7.078125 10.984376-16.484375 10.984376-26.496094 0-10.007813-3.894532-19.414063-10.976563-26.492187-7.078125-7.082032-16.488281-10.96875-26.496094-10.96875zm0 0"/><path d="m100.863281 132.597656c-12.152343 0-23.566406-4.738281-32.160156-13.328125-8.582031-8.585937-13.320313-20-13.320313-32.152343 0-12.152344 4.738282-23.5625 13.320313-32.152344 8.585937-8.59375 20.007813-13.320313 32.152344-13.320313 12.152343 0 23.570312 4.726563 32.160156 13.320313 8.585937 8.582031 13.320313 20 13.320313 32.152344-.007813 12.152343-4.734376 23.566406-13.328126 32.160156-8.59375 8.582031-19.992187 13.320312-32.144531 13.320312zm0-82.945312c-10.007812 0-19.421875 3.894531-26.503906 10.976562-7.078125 7.070313-10.976563 16.488282-10.976563 26.496094s3.898438 19.414062 10.976563 26.496094c7.082031 7.078125 16.488281 10.976562 26.496094 10.984375h.007812c10.007813 0 19.417969-3.898438 26.488281-10.976563 7.082032-7.082031 10.984376-16.496094 10.984376-26.503906s-3.894532-19.417969-10.976563-26.496094c-7.078125-7.082031-16.488281-10.976562-26.496094-10.976562zm0 0"/></g><path d="m238.753906 41.949219h-25.128906v357.816406h25.128906c98.78125 0 178.886719-80.105469 178.886719-178.914063.007813-98.816406-80.105469-178.902343-178.886719-178.902343zm0 0" fill="#efc36a"/><path d="m238.753906 403.757812h-25.128906c-2.210938 0-4-1.792968-4-4v-357.808593c0-2.210938 1.789062-4 4-4h25.128906c100.839844 0 182.886719 82.046875 182.886719 182.902343.007813 100.847657-82.039063 182.90625-182.886719 182.90625zm-21.121094-8h21.128907c96.4375 0 174.886719-78.464843 174.886719-174.914062 0-96.441406-78.457032-174.902344-174.886719-174.902344h-21.128907zm0 0" fill="#63312d"/><path d="m392.519531 220.851562c0 98.808594-80.105469 178.914063-178.878906 178.914063-98.824219-.007813-178.914063-80.113281-178.914063-178.914063 0-98.808593 80.097657-178.902343 178.914063-178.902343 98.773437 0 178.878906 80.085937 178.878906 178.902343zm0 0" fill="#f9dd9d"/><path d="m50.726562 220.851562c0-96.128906 75.808594-174.511718 170.914063-178.695312-2.65625-.121094-5.320313-.199219-8-.199219-98.824219-.007812-178.914063 80.078125-178.914063 178.894531 0 98.808594 80.097657 178.914063 178.914063 178.914063 2.679687 0 5.34375-.089844 8-.203125-95.113281-4.199219-170.914063-82.589844-170.914063-178.710938zm0 0" fill="#ffeecf"/><path d="m213.640625 403.757812c-100.863281 0-182.914063-82.058593-182.914063-182.90625 0-100.847656 82.058594-182.902343 182.914063-182.902343 100.839844 0 182.878906 82.046875 182.878906 182.902343 0 100.847657-82.039062 182.90625-182.878906 182.90625zm0-357.808593c-96.449219 0-174.914063 78.453125-174.914063 174.902343 0 96.449219 78.472657 174.914063 174.914063 174.914063 96.429687 0 174.878906-78.464844 174.878906-174.914063 0-96.449218-78.449219-174.902343-174.878906-174.902343zm0 0" fill="#63312d"/></svg>